<mxfile host="app.diagrams.net" modified="2023-11-02T02:00:34.675Z" agent="Mozilla/5.0 (Windows NT 10.0; Win64; x64; rv:109.0) Gecko/20100101 Firefox/119.0" version="22.0.8" etag="VjYTtZGW91W92T98Hm0E" type="github">
  <diagram name="Page-1" id="BWBzjvvz_oDGt4SH2R3N">
    <mxGraphModel>
      <root>
        <mxCell id="0" />
        <mxCell id="1" parent="0" />
      </root>
    </mxGraphModel>
  </diagram>
</mxfile>
